Coordinates
version=1
nRows=8
nColumns=40
inDegrees=yes

Units are S.I. units (second, meters, Newtons, ...)
Angles are in degrees.

endheader
time	pelvis_tilt	pelvis_list	pelvis_rotation	pelvis_tx	pelvis_ty	pelvis_tz	hip_flexion_r	hip_adduction_r	hip_rotation_r	knee_angle_r	knee_angle_r_beta	ankle_angle_r	subtalar_angle_r	mtp_angle_r	hip_flexion_l	hip_adduction_l	hip_rotation_l	knee_angle_l	knee_angle_l_beta	ankle_angle_l	subtalar_angle_l	mtp_angle_l	lumbar_extension	lumbar_bending	lumbar_rotation	arm_flex_r	arm_add_r	arm_rot_r	elbow_flex_r	pro_sup_r	wrist_flex_r	wrist_dev_r	arm_flex_l	arm_add_l	arm_rot_l	elbow_flex_l	pro_sup_l	wrist_flex_l	wrist_dev_l
     15.18000000	     -4.67348341	     -6.36677756	      9.60364519	      0.95347441	      0.92101868	      0.50480829	      0.10798661	      3.52372463	    -20.19626547	     12.31597077	     12.31597077	     15.68835318	     -1.94377233	     -2.98803847	     27.19421319	     -7.12770355	      2.93967920	     28.10176998	     28.10176998	      9.12587688	    -14.73711941	      5.81081281	     -8.72766325	      4.28238463	      4.78807166	     44.28435252	    -19.14456449	    -10.45515858	     70.02781505	     44.75072302	      0.00000000	      0.00000000	     -0.21712660	     -8.58517481	     -5.47513855	     42.83380314	     46.16959825	      0.00000000	      0.00000000
     15.19914286	     -4.77130793	     -6.32981148	      9.23356667	      0.95341252	      0.92131540	      0.50056628	      0.13260723	      3.01866792	    -20.07808134	     13.00943577	     13.00943577	     15.60968225	     -1.75946458	     -3.03863173	     26.85576583	     -6.92161627	      2.76416569	     28.30473501	     28.30473501	      9.62630524	    -15.08820334	      6.02675853	     -8.70042112	      4.30811792	      5.14014729	     43.65067363	    -19.18513896	    -10.27295110	     68.01460199	     44.82209871	      0.00000000	      0.00000000	      0.87900607	     -8.92664417	     -5.77121289	     43.85010043	     46.22206832	      0.00000000	      0.00000000
     15.21828571	     -4.85667755	     -6.30957697	      8.87858588	      0.95327639	      0.92172441	      0.49626791	      0.22299466	      2.49059643	    -20.01482299	     13.84310101	     13.84310101	     15.61356883	     -1.47817383	     -2.85722834	     26.52860452	     -6.72398017	      2.57916372	     28.55248927	     28.55248927	     10.41724293	    -15.27696091	      7.02123852	     -8.62745043	      4.39613262	      4.38552323	     44.14901185	    -18.09802840	     -9.30609338	     63.67811757	     44.98326741	      0.00000000	      0.00000000	      1.12354053	     -9.59176604	     -6.38808049	     45.48781808	     46.30827528	      0.00000000	      0.00000000
     15.23742857	     -4.91395456	     -6.22579716	      8.45294789	      0.95310906	      0.92229438	      0.49205691	      0.40411103	      1.87395481	    -19.71937416	     14.87644284	     14.87644284	     15.48409168	     -1.53695520	     -3.00286916	     25.98804200	     -6.53262393	      2.16712302	     28.47501417	     28.47501417	     10.77639699	    -15.40814751	      7.04700778	     -8.69255777	      4.41446791	      4.69454096	     43.01007758	    -18.15001780	     -9.10039664	     62.22836709	     45.02766728	      0.00000000	      0.00000000	      2.27026664	    -10.05480635	     -6.59955947	     46.25466697	     46.34981735	      0.00000000	      0.00000000
     15.25657143	     -4.96776984	     -6.14083205	      8.03548048	      0.95290943	      0.92288362	      0.48780681	      0.68128682	      1.21779251	    -19.43718871	     16.08450234	     16.08450234	     15.35016817	     -1.62595643	     -3.20080719	     25.44194398	     -6.32627236	      1.76447159	     28.38826441	     28.38826441	     11.14514030	    -15.54464631	      7.08340466	     -8.73122578	      4.43045462	      4.81727163	     41.77674315	    -18.09378701	     -8.82081194	     60.46526889	     45.07853070	      0.00000000	      0.00000000	      3.35073329	    -10.61816442	     -6.71367897	     46.95911462	     46.38058998	      0.00000000	      0.00000000
     15.27571429	     -5.03805755	     -6.03728629	      7.59888219	      0.95259971	      0.92346566	      0.48359115	      1.13226141	      0.48307207	    -19.10037573	     17.56329660	     17.56329660	     15.21076662	     -1.77007506	     -3.50508305	     24.88483140	     -6.10136217	      1.32133909	     28.23450103	     28.23450103	     11.47762676	    -15.64400681	      7.16213138	     -8.75492170	      4.43653897	      4.88853164	     40.51784725	    -18.01147673	     -8.45121853	     58.34842525	     45.13836438	      0.00000000	      0.00000000	      4.40124813	    -11.24143070	     -6.75241172	     47.67168688	     46.40449355	      0.00000000	      0.00000000
     15.29485714	     -5.09472909	     -5.96177739	      7.16403615	      0.95226054	      0.92400040	      0.47940201	      1.68254677	     -0.24819647	    -18.74018982	     19.21840935	     19.21840935	     15.01630555	     -1.98111914	     -3.94437953	     24.33058479	     -5.89991144	      0.89095921	     28.09014698	     28.09014698	     11.83932016	    -15.75172272	      7.25515224	     -8.77065714	      4.48261087	      4.81506422	     39.19280083	    -17.83737920	     -7.96570011	     55.92825364	     45.20461060	      0.00000000	      0.00000000	      5.37440454	    -11.93057616	     -6.71326907	     48.36426528	     46.42137894	      0.00000000	      0.00000000
     15.31400000	     -5.07763688	     -5.86519016	      6.73118222	      0.95198898	      0.92458645	      0.47523484	      2.24066857	     -1.01039350	    -18.29852243	     21.01457836	     21.01457836	     14.72484091	     -2.29237707	     -4.48531893	     23.68339700	     -5.68394706	      0.47418322	     27.93653460	     27.93653460	     12.23489256	    -15.81053148	      7.28881375	     -8.83975083	      4.50851792	      4.65861851	     37.56610259	    -17.61888681	     -7.53652593	     53.86185170	     45.25698115	      0.00000000	      0.00000000	      6.31306331	    -12.67399125	     -6.73901721	     48.97056680	     46.44305183	      0.00000000	      0.00000000
